dataset
version=1
nRows=22
nColumns=39
inDegrees=no
endheader
time	sternoclavicular_r2	sternoclavicular_r3	unrotscap_r3	unrotscap_r2	acromioclavicular_r2	acromioclavicular_r3	acromioclavicular_r1	unrothum_r1	unrothum_r3	unrothum_r2	elv_angle	shoulder_elv	shoulder1_r2	shoulder_rot	elbow_flexion	pro_sup	deviation	flexion	cmc_abduction	cmc_flexion	mp_flexion	ip_flexion	mcp2_flexion	mcp2_abduction	pm2_flexion	md2_flexion	mcp3_flexion	mcp3_abduction	pm3_flexion	md3_flexion	mcp4_flexion	mcp4_abduction	pm4_flexion	md4_flexion	mcp5_flexion	mcp5_abduction	pm5_flexion	md5_flexion
1.600000	-0.042789	-0.493984	0.319113	0.231214	0.175560	0.287806	-0.198946	0.106873	0.007563	0.172846	0.174726	0.027437	0.146525	0.146525	1.178024	1.345671	0.000000	0.000000	0.000000	0.000000	0.000000	0.000000	0.000000	0.000000	0.000000	0.000000	0.000000	0.000000	0.000000	0.000000	0.000000	0.000000	0.000000	0.000000	0.000000	0.000000	0.000000	0.000000
1.605000	-0.042806	-0.493634	0.318893	0.230997	0.175379	0.287615	-0.198824	0.106454	0.007511	0.172721	0.174507	0.027437	0.146525	0.146525	1.181435	1.346934	0.000000	0.000000	0.000000	0.000000	0.000000	0.000000	0.000000	0.000000	0.000000	0.000000	0.000000	0.000000	0.000000	0.000000	0.000000	0.000000	0.000000	0.000000	0.000000	0.000000	0.000000	0.000000
1.610000	-0.042822	-0.493268	0.318667	0.230755	0.175177	0.287413	-0.198703	0.106013	0.007448	0.172576	0.174263	0.027437	0.146525	0.146525	1.185040	1.348207	0.000000	0.000000	0.000000	0.000000	0.000000	0.000000	0.000000	0.000000	0.000000	0.000000	0.000000	0.000000	0.000000	0.000000	0.000000	0.000000	0.000000	0.000000	0.000000	0.000000	0.000000	0.000000
1.615000	-0.042836	-0.492887	0.318434	0.230490	0.174953	0.287201	-0.198585	0.105551	0.007372	0.172412	0.173991	0.027437	0.146525	0.146525	1.188844	1.349490	0.000000	0.000000	0.000000	0.000000	0.000000	0.000000	0.000000	0.000000	0.000000	0.000000	0.000000	0.000000	0.000000	0.000000	0.000000	0.000000	0.000000	0.000000	0.000000	0.000000	0.000000	0.000000
1.620000	-0.042848	-0.492491	0.318196	0.230199	0.174705	0.286977	-0.198468	0.105067	0.007284	0.172227	0.173694	0.027437	0.146525	0.146525	1.192848	1.350781	0.000000	0.000000	0.000000	0.000000	0.000000	0.000000	0.000000	0.000000	0.000000	0.000000	0.000000	0.000000	0.000000	0.000000	0.000000	0.000000	0.000000	0.000000	0.000000	0.000000	0.000000	0.000000
1.625000	-0.042858	-0.492081	0.317952	0.229885	0.174435	0.286743	-0.198354	0.104563	0.007182	0.172023	0.173369	0.027437	0.146525	0.146525	1.197056	1.352078	0.000000	0.000000	0.000000	0.000000	0.000000	0.000000	0.000000	0.000000	0.000000	0.000000	0.000000	0.000000	0.000000	0.000000	0.000000	0.000000	0.000000	0.000000	0.000000	0.000000	0.000000	0.000000
1.630000	-0.042866	-0.491658	0.317703	0.229546	0.174142	0.286498	-0.198243	0.104039	0.007067	0.171798	0.173018	0.027437	0.146525	0.146525	1.201470	1.353381	0.000000	0.000000	0.000000	0.000000	0.000000	0.000000	0.000000	0.000000	0.000000	0.000000	0.000000	0.000000	0.000000	0.000000	0.000000	0.000000	0.000000	0.000000	0.000000	0.000000	0.000000	0.000000
1.635000	-0.042872	-0.491223	0.317450	0.229182	0.173826	0.286242	-0.198137	0.103495	0.006938	0.171553	0.172639	0.027437	0.146525	0.146525	1.206092	1.354689	0.000000	0.000000	0.000000	0.000000	0.000000	0.000000	0.000000	0.000000	0.000000	0.000000	0.000000	0.000000	0.000000	0.000000	0.000000	0.000000	0.000000	0.000000	0.000000	0.000000	0.000000	0.000000
1.640000	-0.042876	-0.490776	0.317194	0.228793	0.173487	0.285977	-0.198035	0.102932	0.006796	0.171287	0.172233	0.027437	0.146525	0.146525	1.210924	1.355998	0.000000	0.000000	0.000000	0.000000	0.000000	0.000000	0.000000	0.000000	0.000000	0.000000	0.000000	0.000000	0.000000	0.000000	0.000000	0.000000	0.000000	0.000000	0.000000	0.000000	0.000000	0.000000
1.645000	-0.042877	-0.490319	0.316935	0.228379	0.173124	0.285701	-0.197938	0.102353	0.006638	0.171001	0.171800	0.027437	0.146525	0.146525	1.215967	1.357309	0.000000	0.000000	0.000000	0.000000	0.000000	0.000000	0.000000	0.000000	0.000000	0.000000	0.000000	0.000000	0.000000	0.000000	0.000000	0.000000	0.000000	0.000000	0.000000	0.000000	0.000000	0.000000
1.650000	-0.042876	-0.489853	0.316674	0.227941	0.172738	0.285416	-0.197847	0.101756	0.006466	0.170693	0.171340	0.027437	0.146525	0.146525	1.221223	1.358619	0.000000	0.000000	0.000000	0.000000	0.000000	0.000000	0.000000	0.000000	0.000000	0.000000	0.000000	0.000000	0.000000	0.000000	0.000000	0.000000	0.000000	0.000000	0.000000	0.000000	0.000000	0.000000
1.655000	-0.042872	-0.489379	0.316412	0.227478	0.172329	0.285121	-0.197764	0.101145	0.006278	0.170365	0.170852	0.027437	0.146525	0.146525	1.226694	1.359927	0.000000	0.000000	0.000000	0.000000	0.000000	0.000000	0.000000	0.000000	0.000000	0.000000	0.000000	0.000000	0.000000	0.000000	0.000000	0.000000	0.000000	0.000000	0.000000	0.000000	0.000000	0.000000
1.660000	-0.042865	-0.488898	0.316151	0.226990	0.171896	0.284818	-0.197688	0.100520	0.006075	0.170015	0.170338	0.027437	0.146525	0.146525	1.232379	1.361230	0.000000	0.000000	0.000000	0.000000	0.000000	0.000000	0.000000	0.000000	0.000000	0.000000	0.000000	0.000000	0.000000	0.000000	0.000000	0.000000	0.000000	0.000000	0.000000	0.000000	0.000000	0.000000
1.665000	-0.042855	-0.488413	0.315891	0.226478	0.171440	0.284507	-0.197621	0.099882	0.005856	0.169644	0.169796	0.027437	0.146525	0.146525	1.238279	1.362528	0.000000	0.000000	0.000000	0.000000	0.000000	0.000000	0.000000	0.000000	0.000000	0.000000	0.000000	0.000000	0.000000	0.000000	0.000000	0.000000	0.000000	0.000000	0.000000	0.000000	0.000000	0.000000
1.670000	-0.042843	-0.487925	0.315633	0.225942	0.170962	0.284188	-0.197564	0.099235	0.005620	0.169251	0.169228	0.027437	0.146525	0.146525	1.244394	1.363818	0.000000	0.000000	0.000000	0.000000	0.000000	0.000000	0.000000	0.000000	0.000000	0.000000	0.000000	0.000000	0.000000	0.000000	0.000000	0.000000	0.000000	0.000000	0.000000	0.000000	0.000000	0.000000
1.675000	-0.042826	-0.487435	0.315378	0.225382	0.170460	0.283862	-0.197517	0.098578	0.005368	0.168837	0.168632	0.027437	0.146525	0.146525	1.250723	1.365098	0.000000	0.000000	0.000000	0.000000	0.000000	0.000000	0.000000	0.000000	0.000000	0.000000	0.000000	0.000000	0.000000	0.000000	0.000000	0.000000	0.000000	0.000000	0.000000	0.000000	0.000000	0.000000
1.680000	-0.042807	-0.486945	0.315129	0.224799	0.169935	0.283530	-0.197482	0.097914	0.005097	0.168402	0.168010	0.027437	0.146525	0.146525	1.257267	1.366367	0.000000	0.000000	0.000000	0.000000	0.000000	0.000000	0.000000	0.000000	0.000000	0.000000	0.000000	0.000000	0.000000	0.000000	0.000000	0.000000	0.000000	0.000000	0.000000	0.000000	0.000000	0.000000
1.685000	-0.042783	-0.486456	0.314886	0.224192	0.169387	0.283193	-0.197460	0.097245	0.004809	0.167944	0.167362	0.027437	0.146525	0.146525	1.264024	1.367623	0.000000	0.000000	0.000000	0.000000	0.000000	0.000000	0.000000	0.000000	0.000000	0.000000	0.000000	0.000000	0.000000	0.000000	0.000000	0.000000	0.000000	0.000000	0.000000	0.000000	0.000000	0.000000
1.690000	-0.042756	-0.485972	0.314649	0.223563	0.168817	0.282850	-0.197451	0.096574	0.004503	0.167465	0.166688	0.027437	0.146525	0.146525	1.270993	1.368864	0.000000	0.000000	0.000000	0.000000	0.000000	0.000000	0.000000	0.000000	0.000000	0.000000	0.000000	0.000000	0.000000	0.000000	0.000000	0.000000	0.000000	0.000000	0.000000	0.000000	0.000000	0.000000
1.695000	-0.042725	-0.485493	0.314422	0.222911	0.168224	0.282504	-0.197457	0.095901	0.004178	0.166964	0.165987	0.027437	0.146525	0.146525	1.278173	1.370087	0.000000	0.000000	0.000000	0.000000	0.000000	0.000000	0.000000	0.000000	0.000000	0.000000	0.000000	0.000000	0.000000	0.000000	0.000000	0.000000	0.000000	0.000000	0.000000	0.000000	0.000000	0.000000
1.700000	-0.042690	-0.485021	0.314205	0.222237	0.167610	0.282155	-0.197479	0.095231	0.003834	0.166441	0.165261	0.027437	0.146525	0.146525	1.285560	1.371292	0.000000	0.000000	0.000000	0.000000	0.000000	0.000000	0.000000	0.000000	0.000000	0.000000	0.000000	0.000000	0.000000	0.000000	0.000000	0.000000	0.000000	0.000000	0.000000	0.000000	0.000000	0.000000
1.705000	-0.042650	-0.484558	0.313999	0.221541	0.166973	0.281805	-0.197517	0.094564	0.003470	0.165896	0.164510	0.027437	0.146525	0.146525	1.293154	1.372476	0.000000	0.000000	0.000000	0.000000	0.000000	0.000000	0.000000	0.000000	0.000000	0.000000	0.000000	0.000000	0.000000	0.000000	0.000000	0.000000	0.000000	0.000000	0.000000	0.000000	0.000000	0.000000
